<?xml version="1.0" encoding="UTF-8" standalone="no"?>
<!-- Created with Inkscape (http://www.inkscape.org/) -->

<svg
   xmlns:dc="http://purl.org/dc/elements/1.1/"
   xmlns:cc="http://creativecommons.org/ns#"
   xmlns:rdf="http://www.w3.org/1999/02/22-rdf-syntax-ns#"
   xmlns:svg="http://www.w3.org/2000/svg"
   xmlns="http://www.w3.org/2000/svg"
   xmlns:sodipodi="http://sodipodi.sourceforge.net/DTD/sodipodi-0.dtd"
   xmlns:inkscape="http://www.inkscape.org/namespaces/inkscape"
   width="64"
   height="64"
   id="svg2"
   version="1.1"
   inkscape:version="0.48.4 r"
   sodipodi:docname="info.svg"
   inkscape:export-filename="C:\Users\Georges\Projetos\Virtaus\resources\info.png"
   inkscape:export-xdpi="90"
   inkscape:export-ydpi="90">
  <defs
     id="defs4" />
  <sodipodi:namedview
     id="base"
     pagecolor="#ffffff"
     bordercolor="#666666"
     borderopacity="1.0"
     inkscape:pageopacity="0.0"
     inkscape:pageshadow="2"
     inkscape:zoom="7.9195959"
     inkscape:cx="40.102373"
     inkscape:cy="32.656907"
     inkscape:document-units="px"
     inkscape:current-layer="layer1"
     showgrid="false"
     inkscape:window-width="1366"
     inkscape:window-height="745"
     inkscape:window-x="-8"
     inkscape:window-y="-8"
     inkscape:window-maximized="1" />
  <metadata
     id="metadata7">
    <rdf:RDF>
      <cc:Work
         rdf:about="">
        <dc:format>image/svg+xml</dc:format>
        <dc:type
           rdf:resource="http://purl.org/dc/dcmitype/StillImage" />
        <dc:title></dc:title>
      </cc:Work>
    </rdf:RDF>
  </metadata>
  <g
     inkscape:label="Camada 1"
     inkscape:groupmode="layer"
     id="layer1"
     transform="translate(0,-988.36218)">
    <path
       id="rect3007"
       style="fill:#ececec;fill-opacity:1;fill-rule:nonzero;stroke:none"
       d="m 29,1016.8311 6,0 0,20 -6,0 z m 6,-8.2538 c 0,1.6568 -1.343146,3 -3,3 -1.656855,0 -3,-1.3432 -3,-3 0,-1.6569 1.343145,-3 3,-3 1.656854,0 3,1.3431 3,3 z m -30.0000005,11.7849 c 0,14.9117 12.0883125,27 27.0000005,27 14.911688,0 27,-12.0883 27,-27 0,-14.9117 -12.088312,-27.00002 -27,-27.00002 -14.911688,0 -27.0000005,12.08832 -27.0000005,27.00002 z m 58.9999975,0 c 0,17.6731 -14.326888,32 -31.999999,32 -17.673111,0 -31.999998054059222,-14.3269 -31.999998054059222,-32 0,-17.6731 14.32688705405922,-32.00002 31.999998054059222,-32.00002 17.673111,0 31.999999,14.32692 31.999999,32.00002 z" />
  </g>
</svg>
