<?xml version="1.0" encoding="UTF-8" standalone="no"?>
<!-- Created with Inkscape (http://www.inkscape.org/) -->

<svg
   xmlns:dc="http://purl.org/dc/elements/1.1/"
   xmlns:cc="http://creativecommons.org/ns#"
   xmlns:rdf="http://www.w3.org/1999/02/22-rdf-syntax-ns#"
   xmlns:svg="http://www.w3.org/2000/svg"
   xmlns="http://www.w3.org/2000/svg"
   xmlns:sodipodi="http://sodipodi.sourceforge.net/DTD/sodipodi-0.dtd"
   xmlns:inkscape="http://www.inkscape.org/namespaces/inkscape"
   width="128"
   height="128"
   id="svg2"
   version="1.1"
   inkscape:version="0.48.4 r"
   sodipodi:docname="Novo documento 1">
  <defs
     id="defs4" />
  <sodipodi:namedview
     id="base"
     pagecolor="#ffffff"
     bordercolor="#666666"
     borderopacity="1.0"
     inkscape:pageopacity="0.0"
     inkscape:pageshadow="2"
     inkscape:zoom="5.6"
     inkscape:cx="9.1734096"
     inkscape:cy="28.938309"
     inkscape:document-units="px"
     inkscape:current-layer="layer1"
     showgrid="false"
     inkscape:window-width="1366"
     inkscape:window-height="745"
     inkscape:window-x="-8"
     inkscape:window-y="-8"
     inkscape:window-maximized="1" />
  <metadata
     id="metadata7">
    <rdf:RDF>
      <cc:Work
         rdf:about="">
        <dc:format>image/svg+xml</dc:format>
        <dc:type
           rdf:resource="http://purl.org/dc/dcmitype/StillImage" />
        <dc:title></dc:title>
      </cc:Work>
    </rdf:RDF>
  </metadata>
  <g
     inkscape:label="Camada 1"
     inkscape:groupmode="layer"
     id="layer1"
     transform="translate(0,-924.36218)">
    <path
       id="path2992"
       transform="translate(0,924.36218)"
       style="fill:#4b4b4b;fill-opacity:1;stroke:none"
       d="M 23.855881,93.106409 92.934034,23.893011 105.62222,36.193414 37.005811,105.88124 z M 16,63.999994 C 16,90.280475 36.868666,112 64,112 90.280482,112 112,90.280475 112,63.999994 112,37.719513 90.280482,16 64,16 38.257626,16 16,37.719513 16,63.999994 z m 112,-3e-6 C 128,99.346212 99.346222,127.99999 64,127.99999 28.653776,127.99999 2.4550054e-8,99.346212 2.4550054e-8,63.999991 2.4550054e-8,28.653768 28.653776,-8.8364798e-6 64,-8.8364798e-6 99.346222,-8.8364798e-6 128,28.653768 128,63.999991 z"
       inkscape:connector-curvature="0"
       sodipodi:nodetypes="cccccssssssssss" />
  </g>
</svg>
