<?xml version="1.0" encoding="UTF-8" standalone="no"?>
<!-- Created with Inkscape (http://www.inkscape.org/) -->

<svg
   xmlns:dc="http://purl.org/dc/elements/1.1/"
   xmlns:cc="http://creativecommons.org/ns#"
   xmlns:rdf="http://www.w3.org/1999/02/22-rdf-syntax-ns#"
   xmlns:svg="http://www.w3.org/2000/svg"
   xmlns="http://www.w3.org/2000/svg"
   xmlns:sodipodi="http://sodipodi.sourceforge.net/DTD/sodipodi-0.dtd"
   xmlns:inkscape="http://www.inkscape.org/namespaces/inkscape"
   width="128"
   height="128"
   id="svg2"
   version="1.1"
   inkscape:version="0.48.4 r"
   sodipodi:docname="no_thumbnail.svg">
  <defs
     id="defs4" />
  <sodipodi:namedview
     id="base"
     pagecolor="#ffffff"
     bordercolor="#666666"
     borderopacity="1.0"
     inkscape:pageopacity="0.0"
     inkscape:pageshadow="2"
     inkscape:zoom="3.959798"
     inkscape:cx="21.666852"
     inkscape:cy="50.029595"
     inkscape:document-units="px"
     inkscape:current-layer="layer1"
     showgrid="false"
     inkscape:window-width="1366"
     inkscape:window-height="745"
     inkscape:window-x="-8"
     inkscape:window-y="-8"
     inkscape:window-maximized="1" />
  <metadata
     id="metadata7">
    <rdf:RDF>
      <cc:Work
         rdf:about="">
        <dc:format>image/svg+xml</dc:format>
        <dc:type
           rdf:resource="http://purl.org/dc/dcmitype/StillImage" />
        <dc:title />
      </cc:Work>
    </rdf:RDF>
  </metadata>
  <g
     inkscape:label="Camada 1"
     inkscape:groupmode="layer"
     id="layer1"
     transform="translate(0,-924.36218)">
    <rect
       style="fill:none;stroke:#d2d2d2;stroke-width:1;stroke-miterlimit:4;stroke-opacity:1;stroke-dasharray:none;stroke-linejoin:round"
       id="rect3782"
       width="114.59274"
       height="114.59274"
       x="6.7036328"
       y="931.0658"
       ry="2.3691649" />
    <path
       id="path2992"
       style="fill:#c8c8c8;fill-opacity:1;stroke:none"
       d="M 40.434618,1009.3625 84.772916,964.43977 89.44321,969.26124 44.744618,1014.21 z M 33,988.36217 c 0,15.42713 15.073377,31.00003 31,31.00003 15.427157,0 31,-15.5729 31,-31.00003 0,-15.42715 -15.572843,-30.99999 -31,-30.99999 -15.111276,0 -31,15.57284 -31,30.99999 z m 68.5,0 c 0,20.74893 -16.751076,37.50003 -37.5,37.50003 -20.748924,0 -37.5,-16.7511 -37.5,-37.50003 0,-20.74893 16.751076,-37.49999 37.5,-37.49999 20.748924,0 37.5,16.75106 37.5,37.49999 z"
       inkscape:connector-curvature="0"
       sodipodi:nodetypes="cccccssssssssss" />
  </g>
</svg>
