<?xml version="1.0" encoding="UTF-8" standalone="no"?>
<!-- Created with Inkscape (http://www.inkscape.org/) -->

<svg
   xmlns:dc="http://purl.org/dc/elements/1.1/"
   xmlns:cc="http://creativecommons.org/ns#"
   xmlns:rdf="http://www.w3.org/1999/02/22-rdf-syntax-ns#"
   xmlns:svg="http://www.w3.org/2000/svg"
   xmlns="http://www.w3.org/2000/svg"
   xmlns:sodipodi="http://sodipodi.sourceforge.net/DTD/sodipodi-0.dtd"
   xmlns:inkscape="http://www.inkscape.org/namespaces/inkscape"
   width="64"
   height="64"
   id="svg2"
   version="1.1"
   inkscape:version="0.48.4 r"
   sodipodi:docname="preferences.svg"
   inkscape:export-filename="C:\Users\Georges\Projetos\Virtaus\resources\preferences.png"
   inkscape:export-xdpi="90"
   inkscape:export-ydpi="90">
  <defs
     id="defs4" />
  <sodipodi:namedview
     id="base"
     pagecolor="#ffffff"
     bordercolor="#666666"
     borderopacity="1.0"
     inkscape:pageopacity="0.0"
     inkscape:pageshadow="2"
     inkscape:zoom="18.796875"
     inkscape:cx="32"
     inkscape:cy="36.03482"
     inkscape:document-units="px"
     inkscape:current-layer="layer1"
     showgrid="false"
     inkscape:window-width="1366"
     inkscape:window-height="745"
     inkscape:window-x="-8"
     inkscape:window-y="-8"
     inkscape:window-maximized="1" />
  <metadata
     id="metadata7">
    <rdf:RDF>
      <cc:Work
         rdf:about="">
        <dc:format>image/svg+xml</dc:format>
        <dc:type
           rdf:resource="http://purl.org/dc/dcmitype/StillImage" />
        <dc:title></dc:title>
      </cc:Work>
    </rdf:RDF>
  </metadata>
  <g
     inkscape:label="Camada 1"
     inkscape:groupmode="layer"
     id="layer1"
     transform="translate(0,-988.36218)">
    <path
       id="path4888"
       style="fill:#363636;fill-opacity:1;stroke:none;stroke-width:0.59052521000000002;stroke-linejoin:round;stroke-miterlimit:4;stroke-opacity:1"
       d="m 44.020578,1008.3412 c -6.315878,-6.3159 -16.615136,-7.4265 -24.041631,0 -6.900606,6.9006 -6.812196,17.2294 0,24.0416 6.559193,6.5592 17.762884,6.2788 24.041631,0 7.072941,-7.0729 6.119231,-17.9224 0,-24.0416 z m 9.263099,-6.4347 c -0.832496,1.7892 -1.859645,3.6879 -2.740746,5.5692 5.014271,7.2366 5.552012,16.9884 0,25.7726 0.70722,1.4396 1.876672,3.8199 2.740746,5.5692 -0.949069,0.949 -1.949391,1.9494 -2.828427,2.8284 -1.644662,-0.8077 -3.838385,-1.8938 -5.569174,-2.7407 -8.091824,5.2187 -18.927574,5.3324 -25.772627,0 -1.430552,0.7238 -4.283308,2.0921 -5.569173,2.7407 -0.998223,-0.9964 -1.766424,-1.7664 -2.828427,-2.8284 1.372537,-2.6975 1.732786,-3.4031 2.740746,-5.5692 -4.9010639,-6.8898 -5.7488892,-17.6876 -1.5e-5,-25.7726 -0.896587,-1.8245 -1.999704,-4.0675 -2.740746,-5.5692 0.994366,-0.9944 1.958377,-1.95838 2.828427,-2.82844 1.641151,0.81212 3.825331,1.88364 5.569173,2.74074 8.071271,-5.8848 19.156741,-5.15245 25.772642,0 1.951421,-0.9042 3.734808,-1.86632 5.569174,-2.74072 0.703288,0.70329 1.925658,1.92562 2.828427,2.82842 z m -4.283837,18.4557 c 0,-8.932 -6.49735,-17 -17,-17 -9.758931,0 -17,7.3661 -17,17 0,9.2761 8.120511,17 17,17 10.00265,0 17,-8.3461 17,-17 z m 11.1,2 c -1.853826,0.6765 -3.922734,1.2928 -5.876,2 -1.571449,8.6627 -8.086769,15.9385 -18.224,18.224 -0.51784,1.518 -1.374085,4.0281 -2,5.876 -1.342186,0 -2.756854,0 -4,0 -0.591803,-1.7341 -1.374996,-4.0533 -2,-5.876 -9.411968,-2.0316 -17.154432,-9.6132 -18.2239996,-18.224 -1.523406,-0.4997 -4.508112,-1.5494 -5.876,-2 -0.0013,-1.4104 0,-2.4981 0,-4 2.877961,-0.9369 3.63163,-1.1811 5.876,-2 1.4062496,-8.3374 8.4419636,-16.57212 18.2239996,-18.22402 0.656124,-1.92409 1.462121,-4.29013 2,-5.876 1.406245,0 2.769563,0 4,0 0.586217,1.73472 1.373014,4.03682 2,5.876 9.868441,1.54606 17.189203,9.90252 18.224,18.22402 2.019225,0.7405 3.960615,1.3212 5.876,2 0,0.9946 -8e-6,2.7233 0,4 z" />
  </g>
</svg>
